<svg width="1565" height="245" viewBox="0 0 1565 245" fill="none" xmlns="http://www.w3.org/2000/svg">
<path d="M52.8722 108.274H26.4361V84.249H47.7177C50.5591 84.249 52.8722 82.0391 52.8722 79.3245V58.9927H78.0196V84.249C78.0196 97.5204 66.7635 108.274 52.8722 108.274ZM26.4361 110.736H0V134.762H21.2816C24.123 134.762 26.4361 136.971 26.4361 139.686V160.018H51.5835V134.762C51.5835 121.49 40.3274 110.736 26.4361 110.736ZM110.899 109.505C108.057 109.505 105.744 107.295 105.744 104.581V84.249H80.5969V109.505C80.5969 122.777 91.853 133.531 105.744 133.531H132.18V109.505H110.899ZM54.1608 160.018V185.274H79.3083V164.942C79.3083 162.228 81.6213 160.018 84.4627 160.018H105.744V135.993H79.3083C65.4169 135.993 54.1608 146.747 54.1608 160.018Z" fill="#F0529C"/>
<path d="M313.498 59.4147V185H294.047V74.5227L255.521 185H229.838L191.312 74.5227V185H171.861V59.4147H205.665L242.868 166.115L280.072 59.4147H313.498ZM380.896 188.022C348.036 188.022 332.172 165.548 332.172 137.599C332.172 110.027 348.036 87.5534 380.896 87.5534C413.755 87.5534 429.619 110.215 429.619 137.599C429.619 165.36 413.755 188.022 380.896 188.022ZM351.246 137.787C351.246 162.905 360.5 172.914 380.896 172.914C401.291 172.914 410.545 162.905 410.545 137.787C410.545 112.67 401.291 102.661 380.896 102.661C360.5 102.661 351.246 112.67 351.246 137.787ZM449.256 185V52.805H468.141V185H449.256ZM625.498 127.778C625.498 109.838 617.944 103.228 605.479 103.228C588.105 103.228 578.663 115.125 578.663 145.153V185H560.155V127.778C560.155 109.838 552.601 103.228 540.137 103.228C523.141 103.228 513.321 115.125 513.321 145.153V185H494.436V90.575H513.321V111.16C518.797 97.3736 528.995 87.5534 546.558 87.5534C564.31 87.5534 573.942 96.0516 577.341 111.915C582.817 97.7513 593.204 87.5534 611.9 87.5534C634.374 87.5534 644.383 101.339 644.383 126.079V185H625.498V127.778ZM710.645 188.022C677.785 188.022 661.922 165.548 661.922 137.599C661.922 110.027 677.785 87.5534 710.645 87.5534C743.505 87.5534 759.369 110.215 759.369 137.599C759.369 165.36 743.505 188.022 710.645 188.022ZM680.996 137.787C680.996 162.905 690.25 172.914 710.645 172.914C731.041 172.914 740.295 162.905 740.295 137.787C740.295 112.67 731.041 102.661 710.645 102.661C690.25 102.661 680.996 112.67 680.996 137.787ZM837.361 59.4147C865.311 59.4147 876.453 77.3555 876.453 97.3736C876.453 117.769 865.311 135.521 837.361 135.521H797.702V185H778.062V59.4147H837.361ZM832.64 119.847C850.391 119.847 856.057 110.215 856.057 97.3736C856.057 84.5318 850.391 75.0893 832.64 75.0893H797.702V119.847H832.64ZM937.302 188.022C904.442 188.022 888.579 165.548 888.579 137.599C888.579 110.027 904.442 87.5534 937.302 87.5534C970.162 87.5534 986.026 110.215 986.026 137.599C986.026 165.36 970.162 188.022 937.302 188.022ZM907.653 137.787C907.653 162.905 916.906 172.914 937.302 172.914C957.698 172.914 966.952 162.905 966.952 137.787C966.952 112.67 957.698 102.661 937.302 102.661C916.906 102.661 907.653 112.67 907.653 137.787ZM1030.21 110.782V185H1011.33V111.348C1011.33 108.516 1010.38 107.571 1007.55 107.571H995.087V90.575H1009.44C1021.72 90.575 1030.02 98.6955 1030.21 110.782ZM1004.15 76.4112V59.4147H1027.95V76.4112H1004.15ZM1054.53 185V90.575H1073.42V111.726C1079.08 97.7513 1089.47 87.5534 1107.6 87.5534C1132.71 87.5534 1141.97 101.339 1141.97 126.079V185H1123.08V127.778C1123.08 107.949 1114.02 103.228 1102.12 103.228C1083.61 103.228 1073.42 115.125 1073.42 145.153V185H1054.53ZM1200.48 185C1177.63 185 1171.96 176.124 1171.96 157.239V105.116H1154.02V95.2962L1173.66 88.4976L1181.4 69.2349H1190.85V90.575H1221.06V105.116H1190.85V169.892H1219.17V185H1200.48Z" fill="#F0529C"/>
</svg>
